<?xml version="1.0" encoding="UTF-8" standalone="no" ?>
<!DOCTYPE svg PUBLIC "-//W3C//DTD SVG 1.1//EN" "http://www.w3.org/Graphics/SVG/1.1/DTD/svg11.dtd">
<svg xmlns="http://www.w3.org/2000/svg" xmlns:xlink="http://www.w3.org/1999/xlink" version="1.1" width="512" height="512" viewBox="0 0 512 512" xml:space="preserve">
<desc>Created with Fabric.js 5.2.4</desc>
<defs>
</defs>
<rect x="0" y="0" width="100%" height="100%" fill="transparent"></rect>
<g transform="matrix(Infinity NaN NaN Infinity 0 0)" id="ea9e0568-9485-43d3-9362-411fdb70c2c8"  >
</g>
<g transform="matrix(1 0 0 1 256 256)" id="3bb6dbe5-9f81-43bb-8474-92a859c12140"  >
<rect style="stroke: none; stroke-width: 1; stroke-dasharray: none; stroke-linecap: butt; stroke-dashoffset: 0; stroke-linejoin: miter; stroke-miterlimit: 4; fill: rgb(255,255,255); fill-rule: nonzero; opacity: 1; visibility: hidden;" vector-effect="non-scaling-stroke"  x="-256" y="-256" rx="0" ry="0" width="512" height="512" />
</g>
<g transform="matrix(1 0 0 1 256 256)" id="a70ee0da-e5c8-416a-8df6-8287bb24f4ec"  >
<path style="stroke: rgb(0,0,0); stroke-width: 0; stroke-dasharray: none; stroke-linecap: butt; stroke-dashoffset: 0; stroke-linejoin: miter; stroke-miterlimit: 4; fill: rgb(255,255,255); fill-rule: nonzero; opacity: 1;" vector-effect="non-scaling-stroke"  transform=" translate(-256, -256)" d="M 512 256 C 512 256.9 512 257.8 512 258.7 C 511.6 295.2 478.4 320 441.9 320 L 344 320 C 317.5 320 296 341.5 296 368 C 296 371.4 296.4 374.7 297 377.9 C 299.1 388.09999999999997 303.5 397.9 307.8 407.79999999999995 C 313.90000000000003 421.59999999999997 319.90000000000003 435.29999999999995 319.90000000000003 449.79999999999995 C 319.90000000000003 481.59999999999997 298.3 510.49999999999994 266.50000000000006 511.79999999999995 C 263.00000000000006 511.9 259.50000000000006 511.99999999999994 255.90000000000006 511.99999999999994 C 114.6 512 0 397.4 0 256 C 0 114.60000000000002 114.6 0 256 0 C 397.4 0 512 114.6 512 256 z M 128 288 C 128 270.3 113.7 256 96 256 C 78.3 256 64 270.3 64 288 C 64 305.7 78.3 320 96 320 C 113.7 320 128 305.7 128 288 z M 128 192 C 145.7 192 160 177.7 160 160 C 160 142.3 145.7 128 128 128 C 110.30000000000001 128 96 142.3 96 160 C 96 177.7 110.3 192 128 192 z M 288 96 C 288 78.3 273.7 64 256 64 C 238.3 64 224 78.3 224 96 C 224 113.7 238.3 128 256 128 C 273.7 128 288 113.7 288 96 z M 384 192 C 401.7 192 416 177.7 416 160 C 416 142.3 401.7 128 384 128 C 366.3 128 352 142.3 352 160 C 352 177.7 366.3 192 384 192 z" stroke-linecap="round" />
</g>
</svg>